<svg width="61" height="61" viewBox="0 0 61 61" fill="none" xmlns="http://www.w3.org/2000/svg">
<path d="M38.9722 44.0556C38.9722 44.5049 38.7937 44.9359 38.4759 45.2537C38.1582 45.5715 37.7272 45.75 37.2778 45.75H13.5556C13.1828 45.75 12.8269 46.0889 12.5219 46.3092L6.77778 50.8333V23.7222C6.77778 23.2728 6.9563 22.8418 7.27407 22.5241C7.59184 22.2063 8.02283 22.0278 8.47222 22.0278H15.0128V18.6389H8.47222C7.12404 18.6389 5.83107 19.1744 4.87776 20.1278C3.92445 21.0811 3.38889 22.374 3.38889 23.7222V54.2222C3.39141 54.5369 3.48152 54.8447 3.64911 55.111C3.81671 55.3774 4.05517 55.5918 4.33777 55.7303C4.61004 55.8541 4.91022 55.9036 5.20783 55.8739C5.50544 55.8441 5.78987 55.7361 6.03222 55.5608L14.7586 49.1389H37.5319C38.1742 49.1579 38.8134 49.0448 39.4102 48.8067C40.0069 48.5686 40.5484 48.2105 41.0011 47.7546C41.4538 47.2987 41.8081 46.7547 42.0421 46.1563C42.276 45.5579 42.3846 44.9179 42.3611 44.2758V42.3611H38.9722V44.0556Z" fill="#868686"/>
<path d="M54.2222 22.4005V38.8706L48.2917 34.2447C47.9959 34.0152 47.6324 33.89 47.2581 33.8889H23.7222C23.2728 33.8889 22.8418 33.7104 22.5241 33.3926C22.2063 33.0748 22.0278 32.6438 22.0278 32.1944V11.8611C22.0278 11.4117 22.2063 10.9807 22.5241 10.663C22.8418 10.3452 23.2728 10.1667 23.7222 10.1667H38.125C38.1294 9.02079 38.289 7.8808 38.5994 6.77777H23.7222C22.374 6.77777 21.0811 7.31334 20.1278 8.26665C19.1744 9.21995 18.6389 10.5129 18.6389 11.8611V32.1944C18.6389 33.5426 19.1744 34.8356 20.1278 35.7889C21.0811 36.7422 22.374 37.2778 23.7222 37.2778H46.6819L54.7814 43.5642C55.0222 43.7422 55.3058 43.8532 55.6035 43.886C55.9011 43.9187 56.2021 43.872 56.4758 43.7505C56.7642 43.6132 57.0078 43.3972 57.1787 43.1274C57.3496 42.8576 57.4408 42.5449 57.4417 42.2256V20.9603C56.4412 21.5887 55.3575 22.0735 54.2222 22.4005Z" fill="#868686"/>
<path d="M50.8333 18.6389C55.5124 18.6389 59.3056 14.8458 59.3056 10.1667C59.3056 5.4876 55.5124 1.69446 50.8333 1.69446C46.1543 1.69446 42.3611 5.4876 42.3611 10.1667C42.3611 14.8458 46.1543 18.6389 50.8333 18.6389Z" fill="#59D9E7"/>
</svg>
