<svg width="53" height="53" viewBox="0 0 53 53" fill="none" xmlns="http://www.w3.org/2000/svg">
<path d="M34.7083 5.45569C34.7723 5.24776 34.7947 5.02927 34.7742 4.81269C34.7537 4.59612 34.6907 4.3857 34.5889 4.19345C34.4871 4.00121 34.3484 3.8309 34.1808 3.69225C34.0131 3.5536 33.8198 3.44932 33.6119 3.38538C33.404 3.32143 33.1855 3.29907 32.9689 3.31956C32.7523 3.34006 32.5419 3.40301 32.3497 3.50482C32.1574 3.60663 31.9871 3.74532 31.8485 3.91295C31.7098 4.08058 31.6055 4.27388 31.5416 4.48182L18.2916 47.5443C18.1624 47.9642 18.2054 48.4183 18.411 48.8066C18.6167 49.1948 18.9681 49.4855 19.388 49.6146C19.808 49.7438 20.262 49.7008 20.6503 49.4952C21.0385 49.2896 21.3292 48.9381 21.4583 48.5182L34.7083 5.45569V5.45569ZM16.0788 13.7336C16.2331 13.8875 16.3555 14.0702 16.439 14.2715C16.5225 14.4727 16.5654 14.6884 16.5654 14.9063C16.5654 15.1241 16.5225 15.3398 16.439 15.541C16.3555 15.7423 16.2331 15.925 16.0788 16.0789L5.65441 26.5L16.0788 36.9211C16.3898 37.2321 16.5646 37.6539 16.5646 38.0938C16.5646 38.5336 16.3898 38.9554 16.0788 39.2664C15.7678 39.5774 15.346 39.7521 14.9062 39.7521C14.4664 39.7521 14.0446 39.5774 13.7336 39.2664L2.13984 27.6726C1.9856 27.5188 1.86323 27.336 1.77973 27.1348C1.69624 26.9336 1.65326 26.7179 1.65326 26.5C1.65326 26.2821 1.69624 26.0664 1.77973 25.8652C1.86323 25.664 1.9856 25.4812 2.13984 25.3274L13.7336 13.7336C13.8874 13.5794 14.0702 13.457 14.2714 13.3735C14.4727 13.29 14.6884 13.247 14.9062 13.247C15.1241 13.247 15.3398 13.29 15.541 13.3735C15.7422 13.457 15.925 13.5794 16.0788 13.7336V13.7336ZM36.9211 13.7336C36.7669 13.8875 36.6445 14.0702 36.561 14.2715C36.4775 14.4727 36.4345 14.6884 36.4345 14.9063C36.4345 15.1241 36.4775 15.3398 36.561 15.541C36.6445 15.7423 36.7669 15.925 36.9211 16.0789L47.3455 26.5L36.9211 36.9211C36.7671 37.0751 36.6449 37.2579 36.5616 37.4591C36.4783 37.6603 36.4354 37.876 36.4354 38.0938C36.4354 38.3115 36.4783 38.5272 36.5616 38.7284C36.6449 38.9296 36.7671 39.1124 36.9211 39.2664C37.0751 39.4204 37.2579 39.5425 37.4591 39.6259C37.6603 39.7092 37.8759 39.7521 38.0937 39.7521C38.3115 39.7521 38.5271 39.7092 38.7283 39.6259C38.9295 39.5425 39.1124 39.4204 39.2663 39.2664L50.8601 27.6726C51.0143 27.5188 51.1367 27.336 51.2202 27.1348C51.3037 26.9336 51.3467 26.7179 51.3467 26.5C51.3467 26.2821 51.3037 26.0664 51.2202 25.8652C51.1367 25.664 51.0143 25.4812 50.8601 25.3274L39.2663 13.7336C39.1125 13.5794 38.9297 13.457 38.7285 13.3735C38.5273 13.29 38.3116 13.247 38.0937 13.247C37.8759 13.247 37.6602 13.29 37.4589 13.3735C37.2577 13.457 37.0749 13.5794 36.9211 13.7336V13.7336Z" fill="#676767"/>
</svg>
