<svg width="56" height="56" viewBox="0 0 56 56" fill="none" xmlns="http://www.w3.org/2000/svg">
<path d="M21.4433 14.8167C16.6833 20.16 13.4167 27.8367 13.1133 28.56L4.66667 24.9434L14.1167 15.4934C15.2133 14.3967 16.8 13.9067 18.34 14.21L21.4433 14.8167ZM26.0633 39.6667C26.0633 39.6667 34.79 36.05 39.8067 31.0334C52.4067 18.4334 50.3067 8.58669 49.63 6.37003C47.4133 5.67003 37.5667 3.59336 24.9667 16.1934C19.95 21.21 16.3333 29.9367 16.3333 29.9367L26.0633 39.6667ZM41.1833 34.5567C35.84 39.3167 28.1633 42.5834 27.44 42.8867L31.0567 51.3334L40.5067 41.8834C41.6033 40.7867 42.0933 39.2 41.79 37.66L41.1833 34.5567ZM21 42C21 43.9367 20.2067 45.6867 18.9467 46.9467C16.1933 49.7 4.66667 51.3334 4.66667 51.3334C4.66667 51.3334 6.30001 39.8067 9.05334 37.0534C10.0305 36.0711 11.2776 35.4013 12.6362 35.1291C13.9947 34.857 15.4036 34.9947 16.6837 35.5247C17.9639 36.0548 19.0577 36.9533 19.8262 38.1063C20.5947 39.2592 21.0033 40.6145 21 42ZM30.3333 21C30.3333 18.4334 32.4333 16.3334 35 16.3334C37.5667 16.3334 39.6667 18.4334 39.6667 21C39.6667 23.5667 37.5667 25.6667 35 25.6667C32.4333 25.6667 30.3333 23.5667 30.3333 21Z" fill="#737373"/>
<circle cx="36" cy="20" r="6" fill="#59D9E7"/>
</svg>
