<svg width="62" height="62" viewBox="0 0 62 62" fill="none" xmlns="http://www.w3.org/2000/svg">
<path d="M27.9 12.4C25.5347 12.4 23.3275 13.0603 21.4458 14.2104C21.2513 13.1701 20.8968 12.1662 20.3949 11.2344C22.7549 9.92838 25.4149 9.26082 28.1119 9.2977C30.809 9.33458 33.4497 10.0746 35.7731 11.4447C38.0965 12.8148 40.0222 14.7674 41.3598 17.1097C42.6974 19.4519 43.4006 22.1027 43.4 24.8H51.1531C52.3858 24.8008 53.5678 25.2911 54.4391 26.1631C55.3105 27.035 55.8 28.2173 55.8 29.45V48.05C55.8 49.2833 55.3101 50.466 54.438 51.3381C53.566 52.2101 52.3833 52.7 51.15 52.7H32.55C31.3167 52.7 30.134 52.2101 29.2619 51.3381C28.3899 50.466 27.9 49.2833 27.9 48.05V40.3C25.7436 40.3027 23.6105 39.8539 21.638 38.9825C21.6783 37.9285 21.7 36.8218 21.7 35.65V35.5415C23.5228 36.5955 25.6401 37.2 27.9 37.2V29.45C27.9 28.2168 28.3899 27.034 29.2619 26.162C30.134 25.2899 31.3167 24.8 32.55 24.8H40.3C40.3 21.5113 38.9936 18.3573 36.6681 16.0319C34.3427 13.7064 31.1887 12.4 27.9 12.4ZM43.09 27.9C42.4802 30.8778 41.0094 33.6109 38.8602 35.7602C36.7109 37.9095 33.9777 39.3803 31 39.99V48.05C31 48.4611 31.1633 48.8553 31.454 49.146C31.7447 49.4367 32.1389 49.6 32.55 49.6H51.15C51.5611 49.6 51.9553 49.4367 52.246 49.146C52.5367 48.8553 52.7 48.4611 52.7 48.05V29.45C52.7 29.0389 52.5367 28.6447 52.246 28.354C51.9553 28.0633 51.5611 27.9 51.15 27.9H43.09ZM39.9094 27.9H32.55C32.1389 27.9 31.7447 28.0633 31.454 28.354C31.1633 28.6447 31 29.0389 31 29.45V36.8094C33.1446 36.2538 35.1016 35.1347 36.6682 33.5682C38.2347 32.0016 39.3538 30.0446 39.9094 27.9V27.9ZM14.2011 6.58751C14.4584 6.81258 14.6341 7.11639 14.7008 7.45167C14.7675 7.78695 14.7215 8.13488 14.57 8.44131C14.5438 8.532 14.5302 8.6259 14.5297 8.72031C14.5297 8.91561 14.5793 9.28761 15.0474 9.75261C15.2737 9.97891 15.4473 10.1401 15.6364 10.3168C15.7914 10.4594 15.9557 10.6082 16.1634 10.8128C16.5664 11.1972 16.9911 11.6498 17.3724 12.2171C18.1629 13.4044 18.6 14.8893 18.6 17.05C18.6 19.6943 17.6204 21.948 16.0921 23.3306L16.2905 23.56C17.1585 24.6264 17.6638 26.009 17.98 27.373C18.6 30.07 18.6 33.3126 18.6 35.5725V35.65C18.6 44.2897 17.4251 49.1908 16.1324 51.9932C15.4814 53.4037 14.7901 54.3027 14.1918 54.8669C13.9486 55.1003 13.6803 55.3061 13.392 55.4807C13.26 55.5602 13.1221 55.6296 12.9797 55.6884C12.9797 55.6884 12.6294 55.8 12.4 55.8C12.1706 55.8 11.8203 55.6884 11.8203 55.6884C11.6763 55.6331 11.5382 55.5635 11.408 55.4807C11.1197 55.3061 10.8514 55.1003 10.6082 54.8669C10.0099 54.2996 9.3186 53.4037 8.6676 51.9932C7.3749 49.1908 6.2 44.2897 6.2 35.65V35.5725C6.2 33.3095 6.2 30.07 6.82 27.373C7.1362 26.009 7.6415 24.6264 8.5095 23.56C8.5715 23.4825 8.6397 23.405 8.7079 23.3306C7.1796 21.948 6.2 19.6943 6.2 17.05C6.2 16.0394 6.4697 14.8335 6.8417 13.7206C7.2137 12.6046 7.7345 11.4514 8.3359 10.5214C9.052 9.31241 10.0595 8.29871 10.8407 7.61671C11.269 7.24005 11.716 6.88517 12.1799 6.55341L12.2729 6.49141L12.3008 6.46971L12.3101 6.46351L12.3163 6.46041C12.6006 6.27093 12.9394 6.18066 13.2803 6.20365C13.6211 6.22663 13.9449 6.36158 14.2011 6.58751V6.58751ZM12.4 21.7C13.5997 21.6969 15.5 20.367 15.5 17.05C15.5 15.3357 15.1621 14.4956 14.7901 13.9376C14.5639 13.6117 14.303 13.3113 14.012 13.0417L13.6276 12.6821C13.3765 12.4465 13.082 12.1737 12.8526 11.9474C12.5135 11.6119 12.2225 11.2311 11.9877 10.8159C11.5931 11.2308 11.2458 11.6883 10.9523 12.1799C10.5183 12.8464 10.0967 13.7609 9.7836 14.7033C9.4612 15.6643 9.3 16.5137 9.3 17.05C9.3 20.3732 11.2065 21.7 12.4 21.7H12.4062H12.4ZM10.912 25.5192C10.4718 26.0555 10.106 26.9111 9.8394 28.0705C9.3062 30.3893 9.3 33.3033 9.3 35.65C9.3 44.0603 10.4501 48.4592 11.4824 50.6943C11.8234 51.429 12.1427 51.9188 12.4 52.2443C12.6573 51.9188 12.9797 51.429 13.3176 50.6943C14.3499 48.4592 15.5 44.0603 15.5 35.65C15.5 33.3033 15.4938 30.3893 14.9575 28.0705C14.6909 26.9111 14.3251 26.0555 13.888 25.5192C13.717 25.2875 13.4922 25.101 13.2329 24.9757C12.9737 24.8503 12.6878 24.7901 12.4 24.8H12.3938C12.107 24.7908 11.8223 24.8515 11.5641 24.9768C11.306 25.102 11.0822 25.2882 10.912 25.5192V25.5192Z" fill="#737373"/>
</svg>
