<svg width="56" height="56" viewBox="0 0 56 56" fill="none" xmlns="http://www.w3.org/2000/svg">
<path d="M14 27.0822V42H28.9178L25.8067 38.8889H17.1111V30.1933L14 27.0822Z" fill="#737373"/>
<path d="M54.2422 50.2289L49.7778 45.7022V49.7778H6.22222V43.3222H9.33333V40.8333H6.22222V30.4889H9.33333V28H6.22222V18.0444H9.33333V15.5556H6.22222V6.86L31.0178 31.5156V27.1289L5.77111 2.00667C5.55353 1.78729 5.27556 1.63767 4.97261 1.5769C4.66967 1.51612 4.3555 1.54694 4.07014 1.66542C3.78478 1.7839 3.54117 1.98468 3.37037 2.24216C3.19957 2.49963 3.10931 2.80214 3.11111 3.11111V51.3333C3.11111 51.7459 3.275 52.1416 3.56672 52.4333C3.85845 52.725 4.25411 52.8889 4.66667 52.8889H53.1378C53.4467 52.8907 53.7493 52.8004 54.0067 52.6296C54.2642 52.4588 54.465 52.2152 54.5835 51.9299C54.7019 51.6445 54.7328 51.3303 54.672 51.0274C54.6112 50.7244 54.4616 50.4465 54.2422 50.2289V50.2289Z" fill="#737373"/>
<path d="M37.3333 46.6666H43.5556C44.3807 46.6666 45.172 46.3389 45.7554 45.7554C46.3389 45.172 46.6667 44.3807 46.6667 43.5555V13.5333L43.0889 6.95332C42.8122 6.47393 42.4126 6.07704 41.9313 5.8036C41.4501 5.53015 40.9046 5.39006 40.3511 5.39776C39.7851 5.40225 39.2311 5.56107 38.7486 5.8571C38.2662 6.15314 37.8737 6.57518 37.6133 7.07776L34.2222 13.5644V43.5555C34.2222 44.3807 34.55 45.172 35.1334 45.7554C35.7169 46.3389 36.5082 46.6666 37.3333 46.6666ZM37.3333 14.3111L40.3511 8.44665L43.5556 14.3267V37.3333H37.3333V14.3111ZM37.3333 39.8689H43.5556V43.6644H37.3333V39.8689Z" fill="#59D9E7"/>
</svg>
