<svg width="56" height="56" viewBox="0 0 56 56" fill="none" xmlns="http://www.w3.org/2000/svg">
<path d="M23.261 19.761C23.4237 19.5983 23.6169 19.4692 23.8295 19.3812C24.0421 19.2931 24.2699 19.2478 24.5 19.2478C24.7301 19.2478 24.958 19.2931 25.1706 19.3812C25.3831 19.4692 25.5763 19.5983 25.739 19.761C25.9017 19.9237 26.0308 20.1169 26.1188 20.3295C26.2069 20.5421 26.2522 20.7699 26.2522 21C26.2522 21.2301 26.2069 21.458 26.1188 21.6706C26.0308 21.8831 25.9017 22.0763 25.739 22.239L19.9745 28L25.739 33.761C26.0676 34.0896 26.2522 34.5353 26.2522 35C26.2522 35.4647 26.0676 35.9104 25.739 36.239C25.4104 36.5676 24.9647 36.7522 24.5 36.7522C24.0353 36.7522 23.5896 36.5676 23.261 36.239L16.261 29.239C16.098 29.0765 15.9687 28.8833 15.8805 28.6707C15.7923 28.4581 15.7469 28.2302 15.7469 28C15.7469 27.7698 15.7923 27.5419 15.8805 27.3293C15.9687 27.1167 16.098 26.9236 16.261 26.761L23.261 19.761V19.761ZM32.739 19.761C32.5763 19.5983 32.3831 19.4692 32.1706 19.3812C31.958 19.2931 31.7301 19.2478 31.5 19.2478C31.2699 19.2478 31.0421 19.2931 30.8295 19.3812C30.6169 19.4692 30.4237 19.5983 30.261 19.761C30.0983 19.9237 29.9692 20.1169 29.8812 20.3295C29.7931 20.5421 29.7478 20.7699 29.7478 21C29.7478 21.2301 29.7931 21.458 29.8812 21.6706C29.9692 21.8831 30.0983 22.0763 30.261 22.239L36.0255 28L30.261 33.761C29.9324 34.0896 29.7478 34.5353 29.7478 35C29.7478 35.4647 29.9324 35.9104 30.261 36.239C30.5896 36.5676 31.0353 36.7522 31.5 36.7522C31.9647 36.7522 32.4104 36.5676 32.739 36.239L39.739 29.239C39.902 29.0765 40.0313 28.8833 40.1195 28.6707C40.2077 28.4581 40.2531 28.2302 40.2531 28C40.2531 27.7698 40.2077 27.5419 40.1195 27.3293C40.0313 27.1167 39.902 26.9236 39.739 26.761L32.739 19.761V19.761Z" fill="#59D9E7"/>
<path d="M7 7C7 5.14348 7.7375 3.36301 9.05025 2.05025C10.363 0.737498 12.1435 0 14 0L42 0C43.8565 0 45.637 0.737498 46.9497 2.05025C48.2625 3.36301 49 5.14348 49 7V49C49 50.8565 48.2625 52.637 46.9497 53.9497C45.637 55.2625 43.8565 56 42 56H14C12.1435 56 10.363 55.2625 9.05025 53.9497C7.7375 52.637 7 50.8565 7 49V7ZM42 3.5H14C13.0717 3.5 12.1815 3.86875 11.5251 4.52513C10.8687 5.1815 10.5 6.07174 10.5 7V49C10.5 49.9283 10.8687 50.8185 11.5251 51.4749C12.1815 52.1313 13.0717 52.5 14 52.5H42C42.9283 52.5 43.8185 52.1313 44.4749 51.4749C45.1313 50.8185 45.5 49.9283 45.5 49V7C45.5 6.07174 45.1313 5.1815 44.4749 4.52513C43.8185 3.86875 42.9283 3.5 42 3.5Z" fill="#737373"/>
</svg>
