<svg width="56" height="56" viewBox="0 0 56 56" fill="none" xmlns="http://www.w3.org/2000/svg">
<path d="M28 4.66666C15.113 4.66666 4.66669 15.113 4.66669 28C4.66669 40.887 15.113 51.3333 28 51.3333C40.887 51.3333 51.3334 40.887 51.3334 28C51.3334 15.113 40.887 4.66666 28 4.66666Z" stroke="#FF7D04" stroke-width="1.5" stroke-linecap="round" stroke-linejoin="round"/>
<path d="M18.6667 49.392V32.6666L28 16.3333L37.3334 32.6666V49.392" stroke="#868686" stroke-width="1.5" stroke-linecap="round" stroke-linejoin="round"/>
<path d="M18.6667 32.6666C18.6667 32.6666 21.2964 35 23.3334 35C25.3704 35 28 32.6666 28 32.6666C28 32.6666 30.6297 35 32.6667 35C34.7037 35 37.3334 32.6666 37.3334 32.6666" stroke="#868686" stroke-width="1.5" stroke-linecap="round" stroke-linejoin="round"/>
</svg>
